<svg width="243" height="122" viewBox="0 0 243 122" fill="none" xmlns="http://www.w3.org/2000/svg">
<g id="chevron-left">
<path id="Vector" fill-rule="evenodd" clip-rule="evenodd" d="M146.525 13.2527C146.878 13.6044 147.157 14.0221 147.348 14.482C147.539 14.9419 147.637 15.4349 147.637 15.9328C147.637 16.4307 147.539 16.9237 147.348 17.3836C147.157 17.8435 146.878 18.2612 146.525 18.6129L103.773 61.3577L146.525 104.102C147.236 104.813 147.635 105.777 147.635 106.783C147.635 107.788 147.236 108.752 146.525 109.463C145.814 110.173 144.85 110.573 143.845 110.573C142.84 110.573 141.876 110.173 141.165 109.463L95.74 64.0377C95.3875 63.6861 95.1078 63.2684 94.917 62.8085C94.7262 62.3486 94.6279 61.8556 94.6279 61.3577C94.6279 60.8597 94.7262 60.3667 94.917 59.9068C95.1078 59.447 95.3875 59.0292 95.74 58.6776L141.165 13.2527C141.517 12.9002 141.934 12.6205 142.394 12.4297C142.854 12.2389 143.347 12.1406 143.845 12.1406C144.343 12.1406 144.836 12.2389 145.296 12.4297C145.756 12.6205 146.173 12.9002 146.525 13.2527Z" fill="#D7DDDF"/>
</g>
</svg>
