<svg width="243" height="122" viewBox="0 0 243 122" fill="none" xmlns="http://www.w3.org/2000/svg">
<g id="chevron-right">
<path id="Vector" fill-rule="evenodd" clip-rule="evenodd" d="M96.2478 13.2527C96.5995 12.9002 97.0172 12.6205 97.4771 12.4297C97.937 12.2389 98.43 12.1406 98.9279 12.1406C99.4258 12.1406 99.9188 12.2389 100.379 12.4297C100.839 12.6205 101.256 12.9002 101.608 13.2527L147.033 58.6776C147.385 59.0292 147.665 59.447 147.856 59.9068C148.047 60.3667 148.145 60.8597 148.145 61.3577C148.145 61.8556 148.047 62.3486 147.856 62.8085C147.665 63.2684 147.385 63.6861 147.033 64.0377L101.608 109.463C100.897 110.173 99.9331 110.573 98.9279 110.573C97.9227 110.573 96.9586 110.173 96.2478 109.463C95.537 108.752 95.1377 107.788 95.1377 106.783C95.1377 105.777 95.537 104.813 96.2478 104.102L139 61.3577L96.2478 18.6129C95.8953 18.2612 95.6156 17.8435 95.4248 17.3836C95.234 16.9237 95.1357 16.4307 95.1357 15.9328C95.1357 15.4349 95.234 14.9419 95.4248 14.482C95.6156 14.0221 95.8953 13.6044 96.2478 13.2527Z" fill="#D7DDDF"/>
</g>
</svg>
